<svg width="840" height="605" viewBox="0 0 840 605" fill="none" xmlns="http://www.w3.org/2000/svg">
<path d="M164.615 515.178C125.155 548.012 53.0908 563.927 23.6181 510.158C-6.73959 454.767 50.5994 382.51 101.632 362.579C141.315 347.08 194.698 352.836 209.133 399.005C222.847 442.876 197.383 487.906 164.608 515.17L164.615 515.178Z" fill="url(#paint0_linear_2158_3345)"/>
<path d="M165.649 187.118C207.728 183.623 222.698 217.617 212.666 254.215C204.544 283.829 179.318 310.877 151.43 323.126C96.5672 347.221 52.2132 308.371 80.615 252.311C96.3664 221.217 129.506 190.123 165.649 187.126V187.118Z" fill="url(#paint1_linear_2158_3345)"/>
<path d="M242.875 48.0846C264.368 69.9046 247.374 107.022 230.477 126.262C212.48 146.758 174.871 167.939 148.195 152.812C114 133.416 139.367 82.0492 160.942 61.9322C180.092 44.076 220.794 25.6696 242.875 48.0846Z" fill="url(#paint2_linear_2158_3345)"/>
<path d="M352.295 0.435731C395.504 -4.43548 406.793 32.4221 391.027 66.6842C378.235 94.491 341.288 123.451 309.287 116.653C277.643 109.938 276.148 76.2258 287.117 51.2748C297.626 27.3873 325.886 3.41052 352.295 0.435731Z" fill="url(#paint3_linear_2158_3345)"/>
<path d="M469.799 45.7935C520.549 40.4091 521.36 93.4049 495.271 123.324C477.206 144.043 433.871 160.851 413.464 135.186C385.739 100.329 433.946 49.5938 469.799 45.7935Z" fill="url(#paint4_linear_2158_3345)"/>
<path d="M509.936 150.633C551.055 144.185 557.681 189.833 541.491 217.885C527.502 242.122 482.025 268.323 459.922 241.193C434.302 209.749 476.641 155.854 509.936 150.633Z" fill="url(#paint5_linear_2158_3345)"/>
<path d="M425.043 305.582C410.251 324.352 376.51 342.424 355.091 324.457C329.471 302.971 353.247 263.265 376.041 249.514C423.861 220.666 458.904 262.611 425.043 305.589V305.582Z" fill="url(#paint6_linear_2158_3345)"/>
<path d="M228.559 312.862C245.515 294.211 289.832 271.967 306.513 301.64C321.581 328.45 293.246 362.668 268.607 371.882C224.856 388.258 196.714 347.891 228.559 312.862Z" fill="url(#paint7_linear_2158_3345)"/>
<path d="M112.995 557.993L136.548 548.466C170.408 531.718 198.847 505.079 214.77 470.512L219.329 459.096C212.368 510.961 166.184 556.446 112.995 558V557.993Z" fill="url(#paint8_linear_2158_3345)"/>
<path d="M265.453 382.48L277.107 376.664C291.393 368.394 304.103 357.863 311.949 343.086L318.992 324.479C319.959 345.302 306.706 368.84 287.519 377.408C280.32 380.62 273.217 381.639 265.453 382.48Z" fill="url(#paint9_linear_2158_3345)"/>
<path d="M159.848 331.908L184.74 313.301C193.947 304.763 202.254 295.385 208.947 284.706L216.362 271.676C211.922 300.071 187.923 325.646 159.856 331.908H159.848Z" fill="url(#paint10_linear_2158_3345)"/>
<path d="M153.899 53.0372C139.375 70.0157 127.208 89.5824 122.136 111.626L119.697 123.673C115.071 98.9678 126.814 76.0174 144.625 59.7379L153.899 53.0297V53.0372Z" fill="url(#paint11_linear_2158_3345)"/>
<path d="M3.66492 487.348C2.23702 487.088 2.43782 485.794 2.14778 484.783C-5.83952 456.849 9.58474 425.138 29.6943 406.285L17.4159 426.35C8.14197 444.906 0.794252 466.384 3.66492 487.348Z" fill="url(#paint12_linear_2158_3345)"/>
<path d="M549.322 226.416C549.322 226.416 530.633 255.635 488.711 264.351C488.711 264.351 510.308 265.303 528.647 253.769C546.987 242.234 549.322 226.416 549.322 226.416Z" fill="url(#paint13_linear_2158_3345)"/>
<path d="M327.188 522.73C330.406 522.73 333.969 522.407 337.875 521.751C341.776 521.084 344.677 520.178 346.583 519.021V496.209L326.042 497.917C320.719 498.308 316.344 499.454 312.917 501.355C309.5 503.245 307.792 506.094 307.792 509.896C307.792 513.704 309.26 516.792 312.208 519.167C315.151 521.542 320.146 522.73 327.188 522.73ZM324.896 410.646C335.156 410.646 344.521 411.699 352.979 413.792C361.448 415.876 368.677 419.058 374.667 423.334C380.651 427.615 385.26 433.037 388.5 439.605C391.734 446.162 393.354 453.907 393.354 462.834V526.73C393.354 531.678 391.969 535.719 389.208 538.855C386.458 541.995 383.177 544.704 379.375 546.98C367.01 554.396 349.615 558.105 327.188 558.105C317.104 558.105 308.021 557.152 299.938 555.251C291.854 553.35 284.906 550.501 279.104 546.709C273.313 542.907 268.844 538.058 265.708 532.167C262.568 526.266 261 519.412 261 511.605C261 498.495 264.896 488.428 272.688 481.396C280.49 474.355 292.568 469.975 308.917 468.251L346.292 464.271V462.271C346.292 456.761 343.865 452.813 339.021 450.438C334.172 448.063 327.188 446.876 318.063 446.876C310.823 446.876 303.781 447.641 296.938 449.167C290.104 450.683 283.922 452.579 278.396 454.855C275.938 453.146 273.844 450.537 272.125 447.021C270.417 443.495 269.563 439.829 269.563 436.021C269.563 431.079 270.75 427.136 273.125 424.188C275.5 421.245 279.156 418.725 284.104 416.626C289.615 414.542 296.13 413.032 303.646 412.084C311.156 411.126 318.24 410.646 324.896 410.646Z" fill="#00D0B8"/>
<path d="M471.495 505.917C471.495 510.865 473.063 514.386 476.203 516.48C479.339 518.563 483.766 519.605 489.474 519.605C492.318 519.605 495.266 519.37 498.307 518.896C501.349 518.412 504.016 517.792 506.307 517.042C508.016 519.126 509.484 521.454 510.724 524.021C511.958 526.594 512.578 529.683 512.578 533.292C512.578 540.516 509.87 546.412 504.453 550.98C499.036 555.532 489.479 557.813 475.786 557.813C459.047 557.813 446.161 554.011 437.12 546.417C428.089 538.808 423.578 526.449 423.578 509.334V387.251C425.672 386.683 428.667 386.063 432.557 385.396C436.458 384.73 440.599 384.396 444.974 384.396C453.349 384.396 459.859 385.876 464.516 388.834C469.167 391.782 471.495 398.001 471.495 407.501V425.751H508.87C510.005 427.85 511.099 430.469 512.141 433.605C513.193 436.745 513.724 440.219 513.724 444.021C513.724 450.678 512.245 455.475 509.286 458.417C506.339 461.365 502.396 462.834 497.453 462.834H471.495V505.917Z" fill="#00D0B8"/>
<path d="M674.021 553.25C672.115 553.818 669.115 554.385 665.021 554.958C660.938 555.542 656.709 555.833 652.334 555.833C648.151 555.833 644.396 555.542 641.063 554.958C637.74 554.385 634.938 553.25 632.646 551.542C630.365 549.833 628.61 547.51 627.375 544.563C626.136 541.62 625.521 537.766 625.521 533V469.688C625.521 461.896 623.568 456.432 619.667 453.292C615.776 450.156 610.979 448.583 605.271 448.583C601.464 448.583 597.844 449.063 594.417 450.021C591 450.969 588.25 452.099 586.167 453.417V553.25C584.261 553.818 581.261 554.385 577.167 554.958C573.084 555.542 568.854 555.833 564.479 555.833C560.297 555.833 556.542 555.542 553.209 554.958C549.886 554.385 547.084 553.25 544.792 551.542C542.511 549.833 540.756 547.51 539.521 544.563C538.282 541.62 537.667 537.766 537.667 533V367.563C539.761 367.188 542.854 366.667 546.938 366C551.032 365.333 555.172 365 559.354 365C563.532 365 567.282 365.286 570.604 365.854C573.938 366.427 576.74 367.573 579.021 369.292C581.313 371 583.073 373.328 584.313 376.271C585.547 379.219 586.167 383.073 586.167 387.833V415.771C588.636 414.828 592.386 413.74 597.417 412.5C602.459 411.266 608.026 410.646 614.125 410.646C632.943 410.646 647.631 415.354 658.188 424.771C668.74 434.177 674.021 448.198 674.021 466.833V553.25Z" fill="#00D0B8"/>
<path d="M725.627 518.167C723.543 513.417 721.314 508.099 718.939 502.208C716.564 496.307 714.09 489.557 711.522 481.958C708.95 474.349 706.283 465.646 703.522 455.854C700.772 446.063 697.877 434.792 694.835 422.042C697.486 419.391 701.049 417.063 705.522 415.063C709.991 413.063 714.887 412.062 720.21 412.062C726.877 412.062 732.387 413.448 736.752 416.208C741.127 418.958 744.361 424.141 746.46 431.75L768.981 510.188H770.127C772.418 503.719 774.653 496.682 776.835 489.083C779.012 481.474 781.153 473.625 783.252 465.542C785.345 457.458 787.299 449.385 789.106 441.313C790.908 433.229 792.481 425.286 793.814 417.479C800.647 413.87 808.153 412.062 816.335 412.062C822.986 412.062 828.502 413.495 832.877 416.354C837.252 419.203 839.439 424.146 839.439 431.188C839.439 436.313 838.772 442.25 837.439 449C836.106 455.75 834.345 462.932 832.168 470.542C829.986 478.156 827.418 486 824.46 494.083C821.512 502.156 818.424 510.094 815.189 517.896C811.965 525.688 808.637 533.057 805.21 540C801.793 546.932 798.465 553.156 795.231 558.667C789.908 567.984 784.965 575.589 780.397 581.479C775.84 587.38 771.465 591.99 767.272 595.313C763.09 598.646 758.908 600.927 754.731 602.167C750.549 603.401 746.174 604.021 741.606 604.021C733.616 604.021 727.153 601.646 722.21 596.896C717.262 592.146 714.319 585.964 713.377 578.354C719.46 573.604 725.543 568.323 731.627 562.521C737.71 556.729 743.22 550.792 748.168 544.708C744.929 543.75 741.46 541.516 737.752 538C734.043 534.49 730.002 527.875 725.627 518.167Z" fill="#00D0B8"/>
<defs>
<linearGradient id="paint0_linear_2158_3345" x1="53.0015" y1="379.788" x2="487.9" y2="43.6743" gradientUnits="userSpaceOnUse">
<stop offset="0.08" stop-color="#00D0B8"/>
<stop offset="0.27" stop-color="#4ECCCA"/>
<stop offset="0.56" stop-color="#42B0E7"/>
<stop offset="0.82" stop-color="#3B9FF8"/>
<stop offset="1" stop-color="#399AFF"/>
</linearGradient>
<linearGradient id="paint1_linear_2158_3345" x1="53.0015" y1="379.788" x2="487.9" y2="43.6743" gradientUnits="userSpaceOnUse">
<stop offset="0.08" stop-color="#00D0B8"/>
<stop offset="0.27" stop-color="#4ECCCA"/>
<stop offset="0.56" stop-color="#42B0E7"/>
<stop offset="0.82" stop-color="#3B9FF8"/>
<stop offset="1" stop-color="#399AFF"/>
</linearGradient>
<linearGradient id="paint2_linear_2158_3345" x1="53.0017" y1="379.788" x2="487.9" y2="43.6744" gradientUnits="userSpaceOnUse">
<stop offset="0.08" stop-color="#00D0B8"/>
<stop offset="0.27" stop-color="#4ECCCA"/>
<stop offset="0.56" stop-color="#42B0E7"/>
<stop offset="0.82" stop-color="#3B9FF8"/>
<stop offset="1" stop-color="#399AFF"/>
</linearGradient>
<linearGradient id="paint3_linear_2158_3345" x1="53.0018" y1="379.788" x2="487.9" y2="43.6743" gradientUnits="userSpaceOnUse">
<stop offset="0.08" stop-color="#00D0B8"/>
<stop offset="0.27" stop-color="#4ECCCA"/>
<stop offset="0.56" stop-color="#42B0E7"/>
<stop offset="0.82" stop-color="#3B9FF8"/>
<stop offset="1" stop-color="#399AFF"/>
</linearGradient>
<linearGradient id="paint4_linear_2158_3345" x1="53.0021" y1="379.787" x2="487.901" y2="43.6739" gradientUnits="userSpaceOnUse">
<stop offset="0.08" stop-color="#00D0B8"/>
<stop offset="0.27" stop-color="#4ECCCA"/>
<stop offset="0.56" stop-color="#42B0E7"/>
<stop offset="0.82" stop-color="#3B9FF8"/>
<stop offset="1" stop-color="#399AFF"/>
</linearGradient>
<linearGradient id="paint5_linear_2158_3345" x1="53.0016" y1="379.788" x2="487.9" y2="43.6746" gradientUnits="userSpaceOnUse">
<stop offset="0.08" stop-color="#00D0B8"/>
<stop offset="0.27" stop-color="#4ECCCA"/>
<stop offset="0.56" stop-color="#42B0E7"/>
<stop offset="0.82" stop-color="#3B9FF8"/>
<stop offset="1" stop-color="#399AFF"/>
</linearGradient>
<linearGradient id="paint6_linear_2158_3345" x1="53.0018" y1="379.788" x2="487.9" y2="43.674" gradientUnits="userSpaceOnUse">
<stop offset="0.08" stop-color="#00D0B8"/>
<stop offset="0.27" stop-color="#4ECCCA"/>
<stop offset="0.56" stop-color="#42B0E7"/>
<stop offset="0.82" stop-color="#3B9FF8"/>
<stop offset="1" stop-color="#399AFF"/>
</linearGradient>
<linearGradient id="paint7_linear_2158_3345" x1="53.0023" y1="379.788" x2="487.901" y2="43.6741" gradientUnits="userSpaceOnUse">
<stop offset="0.08" stop-color="#00D0B8"/>
<stop offset="0.27" stop-color="#4ECCCA"/>
<stop offset="0.56" stop-color="#42B0E7"/>
<stop offset="0.82" stop-color="#3B9FF8"/>
<stop offset="1" stop-color="#399AFF"/>
</linearGradient>
<linearGradient id="paint8_linear_2158_3345" x1="53.0011" y1="379.788" x2="487.9" y2="43.6746" gradientUnits="userSpaceOnUse">
<stop offset="0.08" stop-color="#00D0B8"/>
<stop offset="0.27" stop-color="#4ECCCA"/>
<stop offset="0.56" stop-color="#42B0E7"/>
<stop offset="0.82" stop-color="#3B9FF8"/>
<stop offset="1" stop-color="#399AFF"/>
</linearGradient>
<linearGradient id="paint9_linear_2158_3345" x1="53.0015" y1="379.788" x2="487.9" y2="43.6741" gradientUnits="userSpaceOnUse">
<stop offset="0.08" stop-color="#00D0B8"/>
<stop offset="0.27" stop-color="#4ECCCA"/>
<stop offset="0.56" stop-color="#42B0E7"/>
<stop offset="0.82" stop-color="#3B9FF8"/>
<stop offset="1" stop-color="#399AFF"/>
</linearGradient>
<linearGradient id="paint10_linear_2158_3345" x1="53.0013" y1="379.788" x2="487.9" y2="43.6741" gradientUnits="userSpaceOnUse">
<stop offset="0.08" stop-color="#00D0B8"/>
<stop offset="0.27" stop-color="#4ECCCA"/>
<stop offset="0.56" stop-color="#42B0E7"/>
<stop offset="0.82" stop-color="#3B9FF8"/>
<stop offset="1" stop-color="#399AFF"/>
</linearGradient>
<linearGradient id="paint11_linear_2158_3345" x1="53.002" y1="379.788" x2="487.901" y2="43.674" gradientUnits="userSpaceOnUse">
<stop offset="0.08" stop-color="#00D0B8"/>
<stop offset="0.27" stop-color="#4ECCCA"/>
<stop offset="0.56" stop-color="#42B0E7"/>
<stop offset="0.82" stop-color="#3B9FF8"/>
<stop offset="1" stop-color="#399AFF"/>
</linearGradient>
<linearGradient id="paint12_linear_2158_3345" x1="53.0017" y1="379.788" x2="487.9" y2="43.6741" gradientUnits="userSpaceOnUse">
<stop offset="0.08" stop-color="#00D0B8"/>
<stop offset="0.27" stop-color="#4ECCCA"/>
<stop offset="0.56" stop-color="#42B0E7"/>
<stop offset="0.82" stop-color="#3B9FF8"/>
<stop offset="1" stop-color="#399AFF"/>
</linearGradient>
<linearGradient id="paint13_linear_2158_3345" x1="53.0016" y1="379.788" x2="487.9" y2="43.6744" gradientUnits="userSpaceOnUse">
<stop offset="0.08" stop-color="#00D0B8"/>
<stop offset="0.27" stop-color="#4ECCCA"/>
<stop offset="0.56" stop-color="#42B0E7"/>
<stop offset="0.82" stop-color="#3B9FF8"/>
<stop offset="1" stop-color="#397CED"/>
</linearGradient>
</defs>
</svg>
